<svg xmlns="http://www.w3.org/2000/svg" xmlns:xlink="http://www.w3.org/1999/xlink" width="32" height="32"><defs><linearGradient id="a"><stop offset="0" stop-color="#ffd800"/><stop offset="1" stop-color="#ff6100"/></linearGradient><linearGradient id="b" x1="906.952" x2="931.379" y1="515.915" y2="546.094" gradientTransform="translate(-934.812 499.682) scale(1.02524)" gradientUnits="userSpaceOnUse" xlink:href="#a"/></defs><g fill="#fff" transform="translate(9 -1028.362)"><rect width="32" height="32" x="-9" y="1028.362" fill="url(#b)" rx="6.763" ry="6.763"/><path style="text-indent:0;text-align:start;line-height:normal;text-transform:none;block-progression:tb" d="M.502 0a.5.5 0 0 0-.5.5v7.754a.5.5 0 0 0 0 .148V15.5a.5.5 0 0 0 .5.5h15a.5.5 0 0 0 .5-.5V.5a.5.5 0 0 0-.5-.5h-15zm.5 1h14v6.662c-1.352-1.198-2.568-1.702-3.713-1.71-1.22-.01-2.277.525-3.303 1.152l-.09-.057c-1.07-.661-2.19-1.26-3.492-1.258v-.006c-1.058 0-2.182.429-3.402 1.422V1zm9.5 1c-.823 0-1.5.678-1.5 1.5 0 .823.677 1.5 1.5 1.5.822 0 1.5-.677 1.5-1.5s-.678-1.5-1.5-1.5zm0 1c.282 0 .5.218.5.5 0 .282-.218.5-.5.5a.493.493 0 0 1-.5-.5c0-.282.218-.5.5-.5zM4.406 6.783c.989 0 1.934.473 2.965 1.11 1.031.636 2.127 1.422 3.428 1.904 1.207.447 2.607.6 4.203.115V15h-14V8.549c1.37-1.325 2.45-1.765 3.404-1.766zm6.875.168c.98.01 2.1.471 3.57 1.942a.5.5 0 0 0 .016.015c-1.46.488-2.629.358-3.722-.043-.764-.283-1.485-.714-2.202-1.164.804-.451 1.558-.756 2.338-.75z" color="#000" font-family="sans-serif" font-weight="400" overflow="visible" transform="translate(-1 1037.362)"/></g></svg>