<svg xmlns="http://www.w3.org/2000/svg" data-name="Layer 1" viewBox="0 0 24 24"><path fill="#57565c" d="M19.5 6.5h1a1 1 0 0 1 1 1V8.88a0 0 0 0 1 0 0h-3a0 0 0 0 1 0 0V7.5A1 1 0 0 1 19.5 6.5zM3.5 6.5h2a1 1 0 0 1 1 1V9a0 0 0 0 1 0 0h-4a0 0 0 0 1 0 0V7.5A1 1 0 0 1 3.5 6.5z"/><path fill="#54bbe8" d="M7.78,8.62H1.5a1,1,0,0,0-1,1v12a1,1,0,0,0,1,1h21a1,1,0,0,0,1-1v-12a1,1,0,0,0-1-1H17.22a1,1,0,0,1-.95-.68l-.54-1.63a1,1,0,0,0-.95-.68H10.22a1,1,0,0,0-.95.68L8.73,7.94A1,1,0,0,1,7.78,8.62Z"/><circle cx="19.5" cy="10.5" r=".5" fill="#fdd331"/><circle cx="4" cy="12" r="1.5" fill="#fff"/><path fill="#57565c" d="M13.5,8h-2a.5.5,0,0,1,0-1h2a.5.5,0,0,1,0,1Z"/><circle cx="12.5" cy="15.5" r="5" fill="#57565c"/><circle cx="12.5" cy="15.5" r="3" fill="#fff"/><circle cx="19.5" cy="10.5" r=".5" fill="#57565c"/></svg>