<svg xmlns="http://www.w3.org/2000/svg" enable-background="new 0 0 100 100" viewBox="0 0 100 100"><path fill="#1b3342" d="M50.8295479,73.5525208
		c0-2.0747986-1.6819572-3.7567596-3.7567596-3.7567596h-0.003685l0.0017815-12.5212097l-4.8145142,1.5163078L42.255291,69.7957611
		h-0.0000076c-2.0748024,0-3.7567635,1.6819611-3.7567635,3.7567596v3.0594559L17.6105042,97.5h6.8075905l15.3738136-15.3738403
		h2.4633827V97.5h4.8138123V82.1261597h2.4670601L64.9099884,97.5h6.8075867L50.8295479,76.6119766V73.5525208z"/><polygon fill="#1b3342" points="47.074 38.133 42.258 39.649 42.258 45.939 47.073 44.423"/><path fill="#1b3342" d="M47.0774498,11.2378159l8.3382568-3.4659872l4.9249344,3.0895338
		c0.1589584-0.114089,0.3286552-0.2164974,0.5090675-0.3062105l4.4734039-2.2342815
		c-0.0838699-0.0711861-0.1726151-0.1365232-0.2681808-0.1969824l-8.3753204-5.3091879
		c-0.6124573-0.3881426-1.3858109-0.4193466-2.0275154-0.0819142l-17.2957916,8.1822243
		c-1.1624794,0.6124477-1.6169357,2.0411539-1.0298462,3.2094898c0.6066017,1.2063684,2.1269875,1.6530294,3.3206787,1.0249662
		l2.6136284-1.3760376l-0.0012665,12.9694872l4.8159561-1.516758L47.0774498,11.2378159z"/><polygon fill="#347abd" points="47.072 47.593 42.257 49.109 42.257 55.621 47.071 54.105"/><polygon fill="#347abd" points="47.075 28.396 42.259 29.913 42.259 36.479 47.074 34.963"/><path fill="#347abd" d="M60.0067215 15.0837698l2.0101013 4.0256395c-2.6031685 3.4766445-3.1933327 8.2607975-1.1211205 12.4108047.0023193.0046368.0052109.008976.0075111.0135841l21.2116852-10.591547L82.1079636 20.92836c-2.0722046-4.1499977-6.2510376-6.5528603-10.5942383-6.5610104l-2.0101166-4.0256214c-.244072-.4888172-.8381882-.6872101-1.3270111-.4431391l-7.7267456 3.8581734C59.9610443 14.000843 59.7626305 14.5949526 60.0067215 15.0837698zM68.7096558 13.2618628c.2449493-.1223011.5426483-.0228844.6649551.2220583.1223068.2449436.0228882.5426359-.2220459.664937l-5.8916626 2.9418688c-.2449417.1223106-.5426445.0229015-.6649475-.2220325-.1223106-.2449417-.022892-.5426521.2220421-.6649628L68.7096558 13.2618628zM61.912941 14.3911781l5.891655-2.9418697c.2449417-.1223097.5426407-.022893.6649475.2220411s.0228882.5426455-.2220459.6649551l-5.8916588 2.9418688c-.2449455.1223011-.5426445.0228844-.6649551-.2220592C61.5685806 14.8111715 61.6679993 14.5134697 61.912941 14.3911781zM75.7211151 33.287117c-.1390228-.2784042-.4774094-.3914146-.755806-.2523727-.2784271.1390038-.3914261.4773941-.2524033.7557983l1.4053955 2.8145828c.1390152.2784195.4774017.3914032.7558212.2523994.2784042-.1390228.3914032-.477417.252388-.7558174L75.7211151 33.287117zM81.9530869 30.5561466l-2.9839859-.9964752c-.295166-.0985546-.6143417.0608273-.7129059.3559856v.0000191c-.0985718.2951584.0608139.6143436.3559799.7129059l2.9839783.9964485c.2951584.0985622.6143494-.0608082.7129059-.355978C82.4076233 30.973877 82.2482529 30.6547012 81.9530869 30.5561466zM81.5741959 24.0928459l-2.8145752 1.4053993c-.2784042.1390038-.3914032.4773979-.252388.7558174.1390228.2784023.4774094.3913956.755806.2523918l2.8145828-1.4053993c.2784195-.1390305.3914108-.4774151.2524033-.7558174C82.1910019 24.0668259 81.8526154 23.953825 81.5741959 24.0928459zM66.4930878 31.6232605l-2.8145905 1.4053802c-.2784119.1390228-.391407.477417-.2523918.7558289.139019.2784004.4774055.3914032.7558174.2523804l2.8145828-1.4053993c.2784119-.139019.3914108-.4774132.252388-.7557983C67.1098862 31.5972309 66.771492 31.4842205 66.4930878 31.6232605zM69.7817764 34.1471672l-.9964371 2.9839706c-.0985718.2951698.0608063.6143417.3559647.7129173h.0000076c.295166.0985603.6143494-.0608101.7129059-.3559799l.9964523-2.9839706c.0985641-.2951698-.0608215-.6143417-.3559799-.7129059v-.0000191C70.1995239 33.692627 69.8803482 33.8520088 69.7817764 34.1471672z"/><path fill="#1b3342" d="M76.1111984,25.9014549l-7.7761078,3.8828278
		c0.0011215,0.0022449,0.0021515,0.0045185,0.0032806,0.0067749c1.0722275,2.1473522,3.6822281,3.0189133,5.8295898,1.9466877
		c2.1473541-1.0722275,3.0189133-3.6822243,1.9466858-5.8295879C76.1135178,25.9059029,76.1123199,25.9037113,76.1111984,25.9014549
		z"/></svg>