<svg xmlns="http://www.w3.org/2000/svg" enable-background="new 0 0 50 50" viewBox="0 0 50 50"><path fill="#696967" d="M33.0528,6.7592c-0.16,0.78-0.6,1.53-1.34,2.29c-1.4042,1.4845-2.2873,1.104-3.06,1.44
				c-1.0217,0.4598-1.257,1.8156-1.9,2.78c-0.09,0.14-0.23,0.32-0.39,0.49l-0.26-0.64c0.05-0.06,0.09-0.12,0.14-0.19
				c0.6053-0.924,0.9068-2.4562,2.16-3c1.0232-0.4433,1.554,0.0697,2.87-1.3c0.66-0.6801,1.04-1.33,1.1801-1.9901
				c0.3135-1.5089-0.5651-2.1188-1.65-2.49l-1.85-0.64l-0.32-0.77l2.38,0.83C32.6001,4.1249,33.3985,5.1131,33.0528,6.7592z"/><path fill="#F5B948" d="M36.7331,42.1099L25.684,12.049c-0.0005-0.0013-0.0019-0.0016-0.0025-0.0028
			c-0.1095-0.2694-0.372-0.46-0.6809-0.46c-0.3082,0-0.5705,0.1897-0.6805,0.4582c-0.0008,0.002-0.0032,0.0025-0.004,0.0046
			L13.2669,42.1099c-0.1511,0.3777,0.0324,0.8069,0.41,0.9579c0.3801,0.1535,0.8075-0.0324,0.9579-0.41l9.629-26.5132v32.1187
			c0,0.407,0.3297,0.7367,0.7367,0.7367c0.407,0,0.7367-0.3297,0.7367-0.7367V16.1476l9.6278,26.5102
			c0.1151,0.2877,0.392,0.4628,0.684,0.4628c0.0911,0,0.184-0.0168,0.2739-0.0527C36.7007,42.9167,36.8842,42.4875,36.7331,42.1099z
			"/><path fill="#696967" d="M26.2037,13.3418v-4.73c-0.19,0.16-0.4,0.32-0.62,0.48v2.8c-0.13-0.18-0.34-0.31-0.58-0.31
			s-0.45,0.12-0.59,0.31v-1.99c-0.03,0.02-0.07,0.05-0.11,0.07c-0.16,0.1-0.33,0.2-0.5,0.3v3.07l-1.14,2.83h1.59l0.01-0.02v0.02
			h1.48v-0.02l0.01,0.02h1.58L26.2037,13.3418z"/><path fill="#444445" d="M20.7652,1.4302c-2.0794,0.4815-4.1769,1.3196-6.0417,2.4143l3.6022,8.6965
			c2.0927-0.5445,4.1685-1.4351,5.9793-2.565c3.176-1.9817,4.8358-4.3046,4.8515-5.9783l-0.7334-1.7706
			C27.2285,1.0547,24.4123,0.5857,20.7652,1.4302z"/><ellipse cx="16.525" cy="8.193" fill="#E4E4E3" rx="1.019" ry="4.711" transform="rotate(-22.5 16.524 8.192)"/></svg>